<svg xmlns="http://www.w3.org/2000/svg" width="25.322" height="25.329" viewBox="0 0 25.322 25.329">
  <g id="Groupe_262" data-name="Groupe 262" transform="translate(-7 -7)">
    <path id="Tracé_28" data-name="Tracé 28" d="M136.79,89.493l.251,2a3.113,3.113,0,0,0,.788.964,3.6,3.6,0,0,0,4.509-.063,3.028,3.028,0,0,0,.852-1.571l.1-1.722a.886.886,0,0,0,.692-.04.951.951,0,0,0,.417-.821V88.2a1.455,1.455,0,0,0-.19-.953c-.2-.206-.5-.051-.581-.211-.071-.14.135-.293.287-.611.319-.659-.02-.948.232-1.42.266-.492.567-.414.774-.885.129-.294.248-.865-.013-1.153-.522-.577-2.136.467-2.612-.1-.25-.3.108-.68-.166-1.1a1.669,1.669,0,0,0-2.077-.238c-.542.35-.331.788-.835,1.211-.774.649-1.626-.077-2.571.476a2.388,2.388,0,0,0-1.068,2.292c.174,1,1.25,1.633,1.073,1.886-.09.128-.354-.052-.663.116a1.092,1.092,0,0,0-.45,1.106,1.141,1.141,0,0,0,.55.793,1.012,1.012,0,0,0,.41.111Z" transform="translate(-120.487 -69.899)" fill="#f6f6f6" stroke="#f6f6f6" stroke-miterlimit="10" stroke-width="2"/>
    <path id="Tracé_29" data-name="Tracé 29" d="M103.13,247.207c.131-.371,1.129-3.1,3.2-4.072a2.051,2.051,0,0,1,1.383-.395,21.961,21.961,0,0,1,2.53.593c1.516.232,2.013-1.037,3.479-.91.759.066.957.35,1.581.79a7.233,7.233,0,0,1,2.649,3.835,10.75,10.75,0,0,1-2.253,1.66,24.96,24.96,0,0,1-3.6,1.146,33.6,33.6,0,0,1-3.989-.2l-2.49-.751Z" transform="translate(-90.601 -218.554)" fill="#f6f6f6" stroke="#f6f6f6" stroke-miterlimit="10" stroke-width="2"/>
    <circle id="Ellipse_14" data-name="Ellipse 14" cx="11.661" cy="11.661" r="11.661" transform="translate(8 8)" fill="none" stroke="#f6f6f6" stroke-miterlimit="10" stroke-width="2"/>
  </g>
</svg>
