<svg xmlns="http://www.w3.org/2000/svg" width="24.913" height="25.63" viewBox="0 0 24.913 25.63">
  <g id="Groupe_260" data-name="Groupe 260" transform="translate(-7.053 -6.042)">
    <path id="Tracé_15" data-name="Tracé 15" d="M13.007,66.88,8.06,68.485,8.2,82.864l16.343,3.467,6.418-6.818L30.94,67.183l-1.052-.1" transform="translate(0 -55.754)" fill="none" stroke="#f6f6f6" stroke-miterlimit="10" stroke-width="2"/>
    <path id="Tracé_16" data-name="Tracé 16" d="M127.03,8.468l.348-1.328,12.359,1.5-.749,3.629" transform="translate(-109.932)" fill="none" stroke="#f6f6f6" stroke-miterlimit="10" stroke-width="2"/>
    <path id="Tracé_17" data-name="Tracé 17" d="M14.7,96.5l14.816,1.833.139,14.815" transform="translate(-6.197 -82.934)" fill="none" stroke="#f6f6f6" stroke-miterlimit="10" stroke-width="2"/>
    <path id="Tracé_18" data-name="Tracé 18" d="M240.2,74.03l-1.609.885-2.976,1.637-1.855,1.021" transform="translate(-209.541 -62.321)" fill="none" stroke="#f6f6f6" stroke-miterlimit="10" stroke-width="2"/>
    <path id="Tracé_19" data-name="Tracé 19" d="M98.18,27.542l.33-1.142,12.531,1.449-.647,3.341" transform="translate(-83.007 -17.975)" fill="none" stroke="#f6f6f6" stroke-miterlimit="10" stroke-width="2"/>
    <path id="Tracé_20" data-name="Tracé 20" d="M107,61.681c.32-.978.866-3.027,1.155-3.961,4.475.467,8.878,1,13.383,1.487-.033.142-.065.285-.1.426a4.14,4.14,0,0,1,.1-.426c-.263.922-.448,1.861-.658,2.793" transform="translate(-94.9 -48.193)" fill="none" stroke="#f6f6f6" stroke-miterlimit="10" stroke-width="2"/>
    <path id="Tracé_21" data-name="Tracé 21" d="M90.11,189.855A3.8,3.8,0,0,1,93.179,191c.979.847.739,1.972,1.668,3.069.632.744,1.844,1.517,4.395,1.535" transform="translate(-79.137 -171.205)" fill="none" stroke="#f6f6f6" stroke-miterlimit="10" stroke-width="2"/>
    <path id="Tracé_22" data-name="Tracé 22" d="M93.141,212.1a5.277,5.277,0,0,0-4.119-.7c-1.186.406-1.311,1.468-2.529,2.106-.829.434-.934.488-3.283.181" transform="translate(-72.697 -191.168)" fill="none" stroke="#f6f6f6" stroke-miterlimit="10" stroke-width="2"/>
    <path id="Tracé_23" data-name="Tracé 23" d="M209.1,202.7a3.881,3.881,0,0,1,.314.343c.1.118.189.24.277.363s.172.25.252.378.157.258.23.389l.151.267-.306.067q-.238.053-.479.093c-.161.027-.322.05-.484.067s-.326.029-.492.034a3.837,3.837,0,0,1-.5-.013,4,4,0,0,1,.452-.217c.153-.063.307-.119.462-.17s.312-.1.467-.138.316-.078.475-.11l-.155.339c-.071-.133-.14-.267-.2-.4s-.125-.275-.183-.414-.109-.284-.157-.429A3.908,3.908,0,0,1,209.1,202.7Z" transform="translate(-188.611 -183.234)" fill="#f6f6f6"/>
    <path id="Tracé_24" data-name="Tracé 24" d="M206.848,259.45a3.937,3.937,0,0,1,.41.221c.133.08.257.165.381.252s.244.179.361.274.232.191.345.292l.231.206-.267.166c-.138.086-.279.167-.421.246s-.288.153-.436.222-.3.133-.453.193a3.913,3.913,0,0,1-.478.152,3.871,3.871,0,0,1,.356-.354c.123-.11.251-.213.381-.313s.263-.193.4-.284.273-.177.412-.26l-.035.371c-.111-.1-.22-.206-.326-.314s-.208-.218-.309-.334-.2-.232-.29-.354A3.925,3.925,0,0,1,206.848,259.45Z" transform="translate(-187.185 -236.11)" fill="#f6f6f6"/>
  </g>
</svg>
