<svg xmlns="http://www.w3.org/2000/svg" width="25.497" height="25.532" viewBox="0 0 25.497 25.532">
  <g id="Groupe_261" data-name="Groupe 261" transform="translate(-7 -7)">
    <ellipse id="Ellipse_12" data-name="Ellipse 12" cx="9.414" cy="9.323" rx="9.414" ry="9.323" transform="translate(8 8)" fill="none" stroke="#f6f6f6" stroke-miterlimit="10" stroke-width="2"/>
    <path id="Tracé_30" data-name="Tracé 30" d="M1.7,0A1.413,1.413,0,0,1,3.04,1.615L2.8,8.627a1.727,1.727,0,0,1-1.457,1.752A1.413,1.413,0,0,1,0,8.765L.243,1.754A1.727,1.727,0,0,1,1.7,0Z" transform="translate(23.006 25.191) rotate(-45)" fill="#f6f6f6"/>
    <path id="Tracé_25" data-name="Tracé 25" d="M156.74,69.72a11.582,11.582,0,0,1,3.545.392,11.055,11.055,0,0,1,1.706.6,8.037,8.037,0,0,1,.821.4c.14.071.269.14.4.218l.388.245c.127.084.256.165.382.255l.364.28a7.721,7.721,0,0,1,.693.616l.167.16.155.172c.105.115.206.231.307.347s.188.246.28.37a4.17,4.17,0,0,1,.26.382,6.709,6.709,0,0,1,.776,1.667,5.131,5.131,0,0,1,.241,1.788,10.337,10.337,0,0,0-1.811-2.861,3.81,3.81,0,0,0-.28-.3c-.1-.1-.188-.2-.28-.3s-.2-.183-.3-.28l-.15-.14-.16-.129c-.108-.085-.211-.175-.316-.262s-.221-.162-.331-.245l-.331-.246c-.112-.077-.232-.148-.347-.224l-.345-.228c-.118-.073-.241-.14-.36-.207l-.36-.21c-.118-.074-.248-.127-.37-.195l-.373-.195c-.125-.064-.248-.132-.375-.19-.253-.122-.51-.242-.769-.357C158.922,70.576,157.844,70.17,156.74,69.72Z" transform="translate(-142.721 -58.683)" fill="#f6f6f6"/>
  </g>
</svg>
