<svg xmlns="http://www.w3.org/2000/svg" width="23.324" height="27.204" viewBox="0 0 23.324 27.204">
  <g id="Groupe_4" data-name="Groupe 4" transform="matrix(0.809, -0.588, 0.588, 0.809, 0, 9.189)">
    <g id="Rectangle_10" data-name="Rectangle 10" transform="translate(5.211 14.069)" fill="#2c2c2c" stroke="#2c2c2c" stroke-width="1">
      <rect width="4.69" height="11.985" stroke="none"/>
      <rect x="0.5" y="0.5" width="3.69" height="10.985" fill="none"/>
    </g>
    <g id="Tracé_5" data-name="Tracé 5" transform="translate(0 0)" fill="#ededed">
      <path d="M 7.816374778747559 15.1327543258667 C 3.782114744186401 15.1327543258667 0.500004768371582 11.85064506530762 0.500004768371582 7.816374778747559 C 0.500004768371582 3.782114744186401 3.782114744186401 0.500004768371582 7.816374778747559 0.500004768371582 C 11.85064506530762 0.500004768371582 15.1327543258667 3.782114744186401 15.1327543258667 7.816374778747559 C 15.1327543258667 11.85064506530762 11.85064506530762 15.1327543258667 7.816374778747559 15.1327543258667 Z" stroke="none"/>
      <path d="M 7.816374778747559 0.999995231628418 C 4.057814598083496 0.999995231628418 0.999995231628418 4.057814598083496 0.999995231628418 7.816374778747559 C 0.999995231628418 11.57493495941162 4.057814598083496 14.63274478912354 7.816374778747559 14.63274478912354 C 11.57493495941162 14.63274478912354 14.63274478912354 11.57493495941162 14.63274478912354 7.816374778747559 C 14.63274478912354 4.057814598083496 11.57493495941162 0.999995231628418 7.816374778747559 0.999995231628418 M 7.816374778747559 -4.76837158203125e-06 C 12.13323497772217 -4.76837158203125e-06 15.63274478912354 3.499505043029785 15.63274478912354 7.816374778747559 C 15.63274478912354 12.13323497772217 12.13323497772217 15.63274478912354 7.816374778747559 15.63274478912354 C 3.499505043029785 15.63274478912354 -4.76837158203125e-06 12.13323497772217 -4.76837158203125e-06 7.816374778747559 C -4.76837158203125e-06 3.499505043029785 3.499505043029785 -4.76837158203125e-06 7.816374778747559 -4.76837158203125e-06 Z" stroke="none" fill="#2c2c2c"/>
    </g>
  </g>
</svg>
